<?xml version="1.0" encoding="iso-8859-1"?>
<!-- Generator: Adobe Illustrator 19.2.1, SVG Export Plug-In . SVG Version: 6.00 Build 0)  -->
<svg version="1.1" id="Layer_1" xmlns="http://www.w3.org/2000/svg" xmlns:xlink="http://www.w3.org/1999/xlink" x="0px" y="0px"
	 viewBox="0 0 841.89 595.28" style="enable-background:new 0 0 841.89 595.28;" xml:space="preserve">
<path style="fill:none;" d="M404.231,426.044c-1.08,0-2.158-0.03-3.224,0.023h3.227
	C404.233,426.058,404.232,426.054,404.231,426.044z"/>
<path style="fill:none;" d="M440.925,397.979h-1.043C440.23,397.988,440.573,397.981,440.925,397.979z"/>
<path style="fill:none;" d="M440.936,426.008c-1.061,0.102-2.14,0.021-3.419,0.021c0.001,0.013,0.001,0.026,0.002,0.039h4.317
	C441.595,426,441.311,425.972,440.936,426.008z"/>
<path style="fill:none;" d="M400.781,397.979h-0.846c0.155,0.01,0.295,0.032,0.49,0.011
	C400.539,397.978,400.664,397.986,400.781,397.979z"/>
<path style="fill:#FFAF00;" d="M439.334,392.055c1.303-13.081,3.789-25.951,7.073-38.665c5.857-22.673,14.646-44.23,25.23-65.064
	c5.057-9.953,10.569-19.674,15.732-29.574c8.465-16.233,10.85-33.498,8.527-51.547c-1.681-13.057-5.721-25.393-11.561-37.111
	c-9.433-18.929-19.002-37.792-28.705-56.584c-11.24-21.767-22.542-43.5-32.696-65.804c-0.603-1.325-1.239-2.636-2.015-4.285
	c-1.36,2.946-2.569,5.544-3.76,8.15c-11.84,25.897-25.433,50.914-38.282,76.304c-7.436,14.692-14.965,29.34-22.221,44.12
	c-6.623,13.49-10.58,27.783-11.429,42.822c-0.91,16.145,2.463,31.393,10.098,45.691c5.962,11.164,12.04,22.274,17.702,33.59
	c9.139,18.266,16.486,37.259,21.833,56.988c3.489,12.874,5.999,25.95,7.51,39.21c0.09,0.791,0.165,1.595,0.244,2.395h36.655
	C439.29,392.478,439.313,392.266,439.334,392.055z"/>
<path style="fill:#008000;" d="M668.58,324.543c-2.443-17.776-10.6-32.952-23.029-45.862c-10.848-11.268-23.559-19.4-38.877-23.106
	c-12.422-3.005-25.001-3.568-37.693-2.179c-14.662,1.605-28.642,5.648-42.022,11.774c-20.402,9.341-36.877,23.643-50.364,41.302
	c-17.066,22.346-26.7,47.942-31.309,75.53c-0.593,3.551-1.077,7.12-1.579,10.687h30.577c4.038-9.952,10.234-18.529,17.698-26.289
	c9.347-9.718,20.405-16.924,32.818-22.077c10.601-4.401,21.316-8.131,33.147-7.119c6.992,0.598,13.683,2.006,19.668,5.688
	c16.247,9.998,23.453,25.234,24.638,43.715c0.509,7.94-1.759,15.372-5.185,22.473c-0.249,0.516-0.457,1.052-0.778,1.795
	c0.812-0.216,1.311-0.322,1.792-0.481c5.467-1.81,10.974-3.511,16.389-5.468c12.029-4.349,23.039-10.494,32.442-19.258
	C664.724,369.069,671.873,348.502,668.58,324.543z"/>
<path style="fill:#FFAF00;" d="M440.925,397.979c-0.352,0.001-0.695,0.009-1.043,0h-39.101c-0.116,0.007-0.241-0.001-0.356,0.011
	c-0.195,0.021-0.335-0.001-0.49-0.011c0,0-30.305,0.037-30.297,0.057c-5.082,0-9.708,0.008-14.334-0.002
	c-4.597-0.01-8.716,1.548-12.412,4.112c-7.624,5.29-7.443,15.109,0.296,20.203c3.578,2.355,7.589,3.466,11.817,3.593
	c4.988,0.15,9.983,0.06,14.975,0.083c0.244,0.001,31.029,0.042,31.029,0.042c1.065-0.053,2.143-0.023,3.224-0.023
	c0.001,0.01,0.002,0.013,0.003,0.023h33.285c-0.001-0.013-0.001-0.026-0.002-0.039c1.279,0,2.358,0.081,3.419-0.021
	c0.374-0.036,0.659-0.008,0.9,0.06c0,0,28.335-0.024,28.339-0.04c0.638,0,1.249,0.002,1.861,0c4.94-0.018,9.884,0.064,14.82-0.087
	c4.065-0.124,7.935-1.175,11.438-3.333c4.84-2.983,6.994-7.279,6.047-12.459c-0.779-4.259-3.525-7.125-7.189-9.154
	c-3.762-2.083-7.781-3.106-12.133-3.016c-3.042,0.063-6.084-0.026-9.119-0.109L440.925,397.979z"/>
<path style="fill:#800080;" d="M387.217,346.752c-7.211-18.906-17.051-36.172-30.993-50.98
	c-10.594-11.252-22.314-21.076-36.168-28.066c-20.466-10.328-42.068-15.888-65.156-14.858c-9.671,0.432-19.112,1.982-28.226,5.354
	c-12.804,4.737-23.444,12.614-32.417,22.725c-15.41,17.365-23.431,37.467-21.419,60.953c1.008,11.767,5.053,22.564,11.85,32.23
	c7.621,10.838,17.788,18.754,29.385,24.955c9.685,5.179,20.149,8.294,30.549,11.584c0.227,0.072,0.484,0.051,0.966,0.095
	c-0.499-1.047-0.925-1.909-1.325-2.783c-2.808-6.147-4.696-12.543-4.697-19.347c-0.002-9.927,2.441-19.26,7.358-27.893
	c6.553-11.506,15.972-19.489,29.066-22.373c9.968-2.195,19.872-1.583,29.661,1.679c17.877,5.958,33.952,14.679,46.634,28.979
	c5.776,6.512,10.862,13.449,14.323,21.481c0.312,0.723,0.613,1.458,0.913,2.203h30.648
	C396.097,377.017,392.884,361.611,387.217,346.752z"/>
<path style="fill:#800080;" d="M368.474,436.832c-6.443,14.19-20.706,21.086-35.17,17.185c-10.201-2.752-16.707-10.1-18.054-20.563
	c-0.994-7.724,0.976-14.915,4.313-21.791c1.344-2.769,2.875-5.447,4.386-8.288c-0.582-0.103-1.069-0.23-1.563-0.269
	c-5.755-0.456-11.503-0.66-17.212,0.51c-13.536,2.773-24.435,9.326-31.081,21.858c-5.152,9.715-6.562,20.102-4.799,30.862
	c1.994,12.176,7.639,22.341,17.739,29.686c11.677,8.491,24.808,12.721,39.252,12.836c9.085,0.073,18.033-0.487,26.801-3.412
	c13.945-4.652,25.082-12.817,33.339-24.97c6.799-10.007,9.813-21.316,11.493-33.087c0.286-2.004,0.507-4.018,0.734-6.03H370.45
	C369.878,433.221,369.274,435.071,368.474,436.832z"/>
<path style="fill:#FFAF00;" d="M402.13,459.696c-0.027,0.397-0.314,0.866-0.623,1.141c-5.37,4.785-9.305,10.59-11.952,17.23
	c-2.037,5.111-3.809,10.328-5.685,15.503c-2.755,7.596-6.564,14.434-13.578,18.985c-0.179,0.116-0.29,0.339-0.432,0.512
	c0.044,0.16,0.088,0.32,0.132,0.48c4.18-0.321,8.41-0.344,12.528-1.035c5.76-0.967,11.504-2.268,16.055-6.755
	c0.148,1.125,0.233,2.029,0.389,2.92c1.236,7.057,4.176,13.425,7.885,19.483c4.562,7.452,9.762,14.542,12.905,22.803
	c0.156,0.41,0.875,0.972,1.162,0.888c0.523-0.154,1.142-0.655,1.333-1.159c2.027-5.328,5.01-10.133,7.954-14.975
	c3.152-5.183,6.311-10.377,9.126-15.744c2.27-4.328,3.397-9.104,3.918-13.874c8.642,6.442,18.512,7.367,28.716,6.996
	c-0.179-0.353-0.406-0.555-0.654-0.723c-5.556-3.762-9.391-8.894-11.799-15.092c-1.806-4.649-3.479-9.351-5.147-14.052
	c-3.036-8.555-7.166-16.403-14.124-22.503c-0.408-0.358-0.547-1.164-0.59-1.776c-0.57-8.107-1.107-16.215-1.637-24.325
	c-0.071-1.082-0.133-2.173-0.195-3.266H404.02C403.4,440.804,402.78,450.251,402.13,459.696z"/>
<path style="fill:#008000;" d="M446.122,448.536c1.493,7.647,4.618,14.702,8.866,21.245c9.265,14.267,22.484,22.878,38.763,27.132
	c7.1,1.856,14.351,2.023,21.612,1.932c11.457-0.144,22.344-2.574,32.369-8.349c5.515-3.176,10.819-6.609,14.814-11.687
	c10.471-13.309,13.055-28.271,8.761-44.416c-2.713-10.204-8.471-18.474-17.546-24.158c-10.766-6.743-22.576-8.482-35.005-7.049
	c-0.273,0.031-0.534,0.161-0.845,0.258c1.405,2.592,2.823,5.04,4.084,7.566c3.411,6.833,5.444,13.98,4.706,21.724
	c-0.596,6.256-3.035,11.644-7.769,15.817c-9.094,8.015-23.452,8.841-33.794,2.024c-7.214-4.755-11.422-11.432-13.873-19.218h-27.909
	C444.176,437.102,445.012,442.846,446.122,448.536z"/>
</svg>
